<?xml version="1.0" standalone="no"?><!DOCTYPE svg PUBLIC "-//W3C//DTD SVG 1.1//EN" "http://www.w3.org/Graphics/SVG/1.1/DTD/svg11.dtd"><svg t="1706532012518" class="icon" viewBox="0 0 1024 1024" version="1.1" xmlns="http://www.w3.org/2000/svg" p-id="3018" xmlns:xlink="http://www.w3.org/1999/xlink" width="200" height="200"><path d="M771.413333 676.408889c9.671111-14.791111 17.635556-30.151111 24.462223-46.648889 2.275556-5.688889 2.275556-11.946667 0-17.635556s-6.826667-10.24-12.515556-12.515555l-37.546667-15.928889c7.395556-23.324444 10.808889-47.217778 10.808889-72.248889 0-57.457778-19.911111-112.071111-56.32-155.875555l29.013334-29.013334c4.551111-4.551111 6.826667-10.24 6.826666-15.928889s-2.275556-11.946667-6.826666-15.928889C671.288889 236.657778 593.92 204.8 512 204.8c-169.528889 0-307.2 137.671111-307.2 307.2 0 58.026667 16.497778 115.484444 47.786667 164.408889-27.875556 10.808889-47.786667 37.546667-47.786667 68.835555 0 40.96 32.995556 73.955556 73.955556 73.955556h466.488888c40.96 0 73.955556-32.995556 73.955556-73.955556 0-31.288889-19.911111-58.595556-47.786667-68.835555zM711.111111 512c0 18.773333-2.844444 36.977778-7.395555 54.613333l-106.951112-44.373333c0.568889-3.413333 0.568889-6.826667 0.568889-10.24 0-15.36-3.982222-29.582222-11.377777-42.097778l81.92-81.92C695.751111 423.253333 711.111111 466.488889 711.111111 512z m-159.288889 0c0 22.186667-17.635556 39.822222-39.822222 39.822222s-39.822222-17.635556-39.822222-39.822222 17.635556-39.822222 39.822222-39.822222 39.822222 17.635556 39.822222 39.822222z m-39.822222-261.688889c62.008889 0 121.173333 21.617778 168.391111 61.44L554.097778 438.044444c-12.515556-6.826667-26.737778-11.377778-42.097778-11.377777-47.217778 0-85.333333 38.115556-85.333333 85.333333s38.115556 85.333333 85.333333 85.333333c27.306667 0 51.768889-13.084444 67.128889-32.995555l164.977778 68.266666c-6.826667 13.653333-15.36 26.168889-24.462223 38.684445h-415.288888c-34.702222-45.511111-54.044444-101.831111-54.044445-159.288889 0-144.497778 117.191111-261.688889 261.688889-261.688889z m233.244444 523.377778H278.755556c-15.928889 0-28.444444-12.515556-28.444445-28.444445s12.515556-28.444444 28.444445-28.444444h466.488888c15.928889 0 28.444444 12.515556 28.444445 28.444444s-12.515556 28.444444-28.444445 28.444445z" p-id="3019" fill="#1296db"></path></svg>