<?xml version="1.0" standalone="no"?><!DOCTYPE svg PUBLIC "-//W3C//DTD SVG 1.1//EN" "http://www.w3.org/Graphics/SVG/1.1/DTD/svg11.dtd"><svg t="1706531924942" class="icon" viewBox="0 0 1024 1024" version="1.1" xmlns="http://www.w3.org/2000/svg" p-id="952" xmlns:xlink="http://www.w3.org/1999/xlink" width="200" height="200"><path d="M512.426667 939.349333c49.536 0 97.408-8.490667 143.658666-25.429333a432.042667 432.042667 0 0 0 126.464-72.362667L482.133333 547.541333a33.749333 33.749333 0 0 1-8.789333-12.373333 46.506667 46.506667 0 0 1-2.346667-15.957333V87.466667A411.093333 411.093333 0 0 0 320.426667 131.669333a439.168 439.168 0 0 0-122.538667 93.781334 431.36 431.36 0 0 0-82.389333 130.986666 412.202667 412.202667 0 0 0-29.653334 155.861334c0 58.453333 11.093333 113.493333 33.408 165.077333a436.608 436.608 0 0 0 228.48 228.522667 409.856 409.856 0 0 0 164.693334 33.450666z m426.752-427.093333c0-30.336-3.370667-60.586667-10.069334-90.752a392.490667 392.490667 0 0 0-28.672-84.266667l-336.426666 193.365334 267.434666 263.509333a426.24 426.24 0 0 0 78.976-129.365333 413.226667 413.226667 0 0 0 28.757334-152.448z m-402.346667-42.496l331.733333-190.549333a413.354667 413.354667 0 0 0-88.533333-98.005334 439.338667 439.338667 0 0 0-114.858667-66.944 408.789333 408.789333 0 0 0-128.298666-28.245333v383.744z" p-id="953" fill="#1296db"></path></svg>